<?xml version="1.0" encoding="UTF-8" standalone="no"?>
<!DOCTYPE svg PUBLIC "-//W3C//DTD SVG 1.1//EN" "http://www.w3.org/Graphics/SVG/1.1/DTD/svg11.dtd">
<svg width="100%" height="100%" viewBox="0 0 82 118" version="1.1" xmlns="http://www.w3.org/2000/svg" xmlns:xlink="http://www.w3.org/1999/xlink" xml:space="preserve" xmlns:serif="http://www.serif.com/" style="fill-rule:evenodd;clip-rule:evenodd;stroke-miterlimit:10;">
    <path id="polyline10" d="M52.23,15.13L52.56,15.39L52.73,15.72L53.06,15.89L52.98,16.22L53.06,16.55L53.06,16.88L53.23,17.22L53.4,17.55L53.31,17.88L53.47,18.21L53.4,18.55L53.56,18.88L53.81,19.21L54.14,19.21L54.47,19.38L54.8,19.62L54.97,19.95L55.06,20.28L54.73,20.54L54.47,20.87L54.14,21.2L53.81,21.54L53.4,21.87L53.06,22.04L52.81,22.37L52.48,22.61L52.23,22.94L52.23,23.28L52.07,23.61L51.81,23.94L51.48,24.27L51.23,24.61L51.57,24.61L52.4,24.36L52.73,24.27L52.9,23.94L52.9,23.61L53.23,23.44L53.47,23.78L53.73,24.11L53.81,23.78L53.56,23.44L53.64,23.11L53.9,22.78L54.23,22.61L54.89,22.61L55.23,22.7L55.56,22.7L55.89,22.61L56.22,22.53L56.56,22.37L56.89,22.37L57.22,22.45L57.72,22.78L57.46,23.11L57.39,23.44L57.3,23.78L57.13,24.11L56.89,24.44L56.56,24.77L56.22,24.86L55.89,24.77L55.56,25.03L55.23,25.19L54.89,25.11L54.56,25.03L53.9,25.19L53.23,25.19L52.9,25.03L52.48,24.94L52.14,25.11L52.14,25.44L52.56,25.19L52.9,25.36L53.23,25.44L53.56,25.53L53.9,25.53L54.23,25.36L54.56,25.44L54.89,25.44L55.23,25.53L55.56,25.53L55.89,25.36L55.97,25.69L56.3,25.44L56.39,25.11L56.72,25.03L57.05,24.77L57.39,24.77L57.46,24.44L57.72,24.11L57.89,23.78L58.13,23.44L58.46,23.28L58.79,23.44L59.13,23.53L59.46,23.78L60.12,23.94L60.46,24.2L60.79,24.36L61.21,24.53L61.62,24.7L61.95,24.61L62.29,24.77L62.62,25.03L62.71,25.36L63.04,25.19L63.37,25.27L63.7,25.53L63.95,25.86L63.95,26.19L63.87,26.52L63.95,26.86L63.87,27.27L63.87,27.6L63.62,27.93L63.95,28.02L64.2,27.69L64.28,27.36L64.37,27.02L64.7,26.93L64.95,27.27L65.37,27.19L65.53,26.86L65.7,26.52L66.36,26.86L66.7,27.1L67.03,27.27L67.36,27.36L67.69,27.69L68.03,27.77L68.36,27.52L68.69,27.69L69.02,27.85L69.36,28.1L69.69,27.93L70.02,28.02L70.27,28.35L70.6,28.19L70.93,28.02L71.26,28.02L71.68,28.26L72.02,28.52L72.35,28.52L72.68,28.76L73.01,29.02L73.51,29.68L73.85,29.85L74.18,30.01L74.34,30.35L74.59,30.68L74.75,31.01L75.09,31.34L75.75,31.68L76.09,31.92L76.42,32.09L76.75,32.42L76.84,32.75L77.34,32.67L77.75,32.84L78.08,32.92L78.41,33.01L78.75,33.67L78.67,34L78.67,34.34L78.83,34.67L79,35L79,35.33L79.08,35.67L79.08,36.33L79,36.66L78.91,37L79,37.33L79,37.66L78.83,37.99L78.67,38.33L78.67,38.66L78.58,38.99L78.5,39.32L78.34,39.66L78.08,39.98L77.84,40.31L77.5,40.4L77.17,40.4L77.34,40.73L77.17,41.06L76.92,41.4L76.67,41.73L76.34,41.97L76.01,42.23L75.67,42.23L75.42,42.56L75.09,42.8L74.92,43.14L74.75,43.47L74.59,43.81L74.42,44.14L73.85,44.64L73.59,44.98L73.26,45.14L72.85,45.05L72.52,44.89L72.43,45.22L72.43,45.55L72.35,45.88L72.09,46.22L71.85,46.55L71.76,46.88L71.85,47.21L72.18,47.05L72.18,47.71L71.85,47.97L71.68,48.3L71.85,48.63L71.85,49.3L71.93,49.63L71.93,49.96L71.85,50.29L71.85,50.63L71.68,50.96L71.6,51.29L71.43,51.62L71.35,51.96L71.1,52.29L71.02,52.62L70.93,52.95L70.85,53.29L70.85,53.62L70.35,54.28L70.19,54.62L70.1,54.95L70.1,55.28L70.02,55.61L70.02,55.95L69.93,56.28L69.77,56.61L69.43,56.78L69.1,57.35L68.77,57.61L68.69,57.94L68.69,58.27L68.36,58.35L68.03,58.68L67.69,58.77L67.69,59.1L67.44,59.44L67.2,59.77L67.2,60.77L66.86,61.1L66.53,61.27L66.2,61.34L65.87,61.6L65.87,61.93L65.53,62.1L65.2,62.01L64.2,62.01L63.87,61.93L63.54,62.01L63.21,62.1L62.87,61.84L62.54,61.93L62.21,62.1L61.88,62.1L61.54,62.34L61.21,62.6L60.88,62.67L60.55,62.93L60.38,63.26L59.55,63.26L59.22,63.43L58.88,63.59L58.55,63.59L58.22,63.67L57.89,63.84L57.55,64.09L57.3,64.42L56.97,64.67L56.63,64.92L56.39,65.25L56.22,65.59L55.89,65.75L55.56,65.66L55.3,66L55.3,66.33L55.23,66.66L55.14,66.99L55.14,67.33L55.23,67.66L55.3,67.99L55.23,68.57L55.23,68.9L54.89,68.9L54.89,69.57L55.06,69.9L55.23,70.49L55.06,70.82L54.8,71.15L54.47,71.23L53.81,71.32L53.31,71.98L52.98,72.24L52.9,72.57L52.56,73.23L52.4,73.57L52.31,73.9L52.14,74.23L52.07,74.56L51.9,74.9L51.57,75.23L51.23,75.47L50.98,75.8L50.65,76.05L50.31,76.3L49.98,76.47L49.82,76.14L50.15,76.05L50.48,75.8L50.74,75.47L50.74,75.14L50.98,74.81L51.31,74.64L51.48,74.31L51.57,73.9L51.57,73.57L51.23,73.57L50.9,73.4L50.9,73.73L50.98,74.06L50.9,74.4L50.57,74.64L50.48,74.97L50.15,75.23L49.9,75.56L49.57,75.88L49.32,76.21L49.32,77.54L49.15,77.88L49.07,78.21L48.91,78.54L48.65,78.87L48.32,79.04L47.99,79.13L47.65,79.04L47.58,78.71L47.74,78.38L48.08,78.04L48.41,77.8L48.74,77.47L48.82,77.13L48.82,76.8L48.49,76.88L47.99,77.54L47.91,77.63L47.58,77.3L47.32,76.97L47.08,76.64L46.82,76.3L46.49,76.06L46.16,75.8L45.83,75.64L45.49,75.39L45.16,75.14L44.99,74.81L44.75,74.47L44.42,74.56L44.09,74.4L43.83,74.06L43.5,73.73L43.17,73.48L43,73.14L42.67,73.14L42.33,73.31L42,73.4L41.59,73.48L41.84,73.14L42.09,72.81L42.33,72.48L42.59,72.15L42.83,71.82L43.17,71.48L43.42,71.15L43.75,70.82L44,70.49L44.16,70.15L44.5,69.82L44.83,69.65L45.16,69.58L45.49,69.41L45.66,69.08L45.99,68.91L46.32,68.66L46.66,68.49L46.99,68.49L47.32,68.25L47.58,67.91L47.58,67.58L47.65,67.25L47.65,66.58L47.49,66.25L47.49,65.92L47.24,65.59L46.91,65.5L46.58,65.66L46.25,65.85L46.41,65.52L46.41,63.77L46.58,63.44L46.66,63.1L46.58,62.77L46.25,62.69L45.83,62.69L45.49,62.61L45.16,62.36L45.08,62.03L44.99,61.7L45.08,61.37L44.92,61.03L44.83,60.7L44.92,60.37L44.75,60.04L44.09,59.7L43.75,59.54L43.42,59.54L43.09,59.61L42.42,59.61L42.09,59.78L41.76,59.7L41.34,59.54L41.43,59.2L41.5,58.87L41.5,58.54L41.34,58.21L41.5,57.87L41.5,57.54L41.34,57.21L41.34,56.54L41.17,56.29L41.59,55.79L41.09,55.38L41.17,55.05L41.34,54.72L41.43,54.38L41.5,54.05L41.67,53.72L41.76,53.39L41.92,53.05L42.09,52.72L41.59,52.06L41.26,51.8L40.93,51.47L40.59,51.3L40.51,50.97L40.34,50.64L40.43,50.31L40.59,49.97L40.76,49.64L40.67,49.56L37.68,49.4L37.18,47.65L37.51,47.65L37.68,47.31L37.68,46.98L37.44,46.65L37.6,46.32L37.6,45.98L37.35,45.65L37.01,45.48L36.68,45.41L36.02,45.07L35.68,45.07L35.35,45.15L35.02,45.15L34.69,44.91L34.35,44.58L34.02,44.58L33.69,44.49L33.36,44.32L33.02,44.08L32.78,43.74L32.45,43.74L32.12,43.58L31.78,43.49L31.12,43.49L30.78,43.32L30.53,42.99L30.2,42.75L29.87,42.58L29.53,42.25L29.2,41.99L29.12,41.66L29.2,41.33L29.2,41L29.12,40.66L28.96,40.33L28.79,40L28.96,39.67L29.12,39.33L29.12,39L28.96,38.67L28.62,38.76L28.29,38.76L27.96,38.84L27.63,38.84L27.29,38.92L26.96,39.17L26.71,39.5L26.37,39.76L26.04,39.83L25.71,40L25.46,40.33L25.13,40.5L24.8,40.59L24.54,40.92L24.3,41.25L23.97,41.25L23.64,41.09L23.3,41L22.97,41.09L22.64,41.16L22.37,41.23L21.95,41.15L21.62,41.32L21.29,41.48L20.95,41.48L20.62,41.4L20.45,41.06L20.54,40.73L20.54,39.49L20.45,39.16L20.45,38.82L20.13,38.74L19.8,38.99L19.47,39.16L19.14,39.4L18.88,39.73L18.55,39.82L18.22,39.9L17.88,39.9L17.64,39.57L17.31,39.23L16.96,38.99L16.63,38.9L16.3,38.99L15.97,38.99L16.05,38.66L15.97,38.24L15.8,37.9L15.47,37.57L15.22,37.24L15.13,36.91L15.06,36.58L14.72,36.33L14.56,36L14.72,35.67L14.8,35.33L14.89,35L14.97,34.67L15.13,34.34L15.56,34.17L15.89,33.84L15.8,33.51L15.72,33.17L15.72,32.84L15.89,32.51L16.13,32.18L16.3,31.84L16.46,31.51L16.72,31.18L16.96,30.85L17.31,30.68L17.64,30.51L17.97,30.42L18.71,30.42L19.05,30.09L19.38,29.93L19.8,29.76L20.13,29.76L20.45,29.93L20.79,29.76L21.12,29.76L21.21,29.59L21.62,27.27L21.78,25.19L21.78,25.03L21.87,24.7L21.87,24.36L21.12,23.37L20.79,23.29L20.79,21.96L20.88,21.63L21.21,21.63L21.54,21.37L21.87,21.63L22.21,21.46L22.12,21.13L21.78,20.78L21.45,20.62L21.12,20.71L21.04,19.62L23.11,19.62L23.54,19.71L23.87,19.45L23.87,19.12L24.28,19.21L24.61,19.04L24.94,18.96L25.28,18.96L25.44,19.12L25.61,19.45L25.78,19.79L26.11,20.12L26.36,20.45L26.7,20.62L26.77,20.95L27.11,21.04L27.44,21.2L27.77,21.37L28.1,21.37L28.44,21.13L28.6,20.78L28.93,21.04L29.19,20.62L29.36,20.28L29.69,20.04L30.02,19.79L30.35,19.62L30.52,19.29L30.85,18.96L31.18,18.88L31.52,18.79L31.85,18.62L31.76,18.29L31.43,18.21L30.76,18.21L30.43,18.05L30.43,17.71L30.52,17.38L30.35,17.05L30.35,16.72L30.26,16.3L30.02,15.96L29.69,15.8L29.36,15.55L29.36,15.22L29.69,15.22L30.02,15.3L30.35,15.22L30.69,15.39L31.02,15.46L31.35,15.63L31.68,15.72L32.02,15.89L32.35,15.96L32.68,15.72L32.92,15.39L33.59,15.39L33.92,15.22L34.25,15.22L34.59,15.13L34.92,14.97L35.25,14.72L35.58,14.72L36.01,14.47L36.42,14.3L36.67,13.97L36.52,13.62L36.84,13.47L37.17,13.3L37.5,13.3L37.83,13.47L37.83,14.06L37.5,14.3L37.5,14.63L37.75,14.97L38,15.3L38.08,15.63L38,15.96L37.91,16.3L37.83,16.63L37.83,17.96L38,18.29L38.08,18.62L38.17,18.96L38.33,19.29L38.67,19.45L39,19.54L39.41,19.79L39.75,19.87L40.08,19.87L40.42,19.71L40.75,19.54L41.08,19.39L41.99,19.39L42.32,19.04L42.66,18.88L42.99,18.88L43.41,18.79L43.49,18.88L43.82,18.88L44.15,19.12L44.57,19.04L44.91,18.79L44.91,18.46L44.57,18.21L44.65,17.88L44.98,17.96L45.32,18.05L45.65,17.96L45.98,17.79L46.31,17.79L46.48,18.12L46.81,18.12L46.99,18.39L47.32,18.47L47.74,18.63L48.08,18.47L48.41,18.22L48.74,18.3L49.07,18.22L49.41,18.39L49.74,18.47L50.07,18.22L50.9,17.14L51.07,16.81L51.31,16.47L51.57,16.06L51.81,15.73L52.07,15.4L51.98,15.07L52.23,15.13" style="fill:none;fill-rule:nonzero;stroke:black;stroke-width:0.28px;"/>
    <path id="polyline12" d="M17.22,3.5L17.88,3.16L18.22,3.16L18.55,2.92L18.71,2.59L18.64,2.25L18.3,2L17.97,2.09L17.64,2.25L17.22,2.59L16.96,2.92L16.72,3.25L16.39,3.33L16.05,3.5L15.72,3.66L15.4,4.01L15.06,4.17L13.97,4.17L13.64,4.25L13.14,4.91L12.81,5.25L12.56,4.91L12.23,4.83L11.9,4.99L11.64,5.32L11.48,5.66L11.14,6.32L11.07,6.65L11.07,7.32L10.73,7.32L10.4,7.41L10.24,7.74L10.07,8.07L9.81,8.41L9.48,8.57L9.15,8.82L9.07,9.15L9.24,9.48L9.24,10.16L8.91,10.16L8.91,9.82L8.65,9.48L8.41,9.15L8.07,9.15L8.15,9.48L8.15,9.82L8.07,10.16L7.91,10.49L7.74,10.82L7.41,10.73L7.32,11.06L7.32,11.4L7.58,11.73L7.65,12.06L7.99,12.14L8.07,12.47L7.99,12.89L8.07,13.23L8.24,13.56L8.07,13.89L7.91,14.22L8.07,14.56L8.07,15.89L7.99,16.22L7.99,16.55L8.15,16.88L8.48,16.88L8.48,17.22L8.15,17.46L7.91,17.79L7.65,18.12L7.58,18.46L7.49,18.79L7.41,19.12L7.08,19.21L6.74,19.21L6.41,19.39L6.08,19.29L6,19.62L6,19.95L6.17,20.28L6.25,20.62L5.91,20.78L5.58,20.78L5.49,21.13L5.75,21.7L5.49,21.2L6.41,22.12L6.74,22.2L7.08,22.29L7.41,22.37L7.74,22.29L8.07,22.53L8.41,22.87L8.74,23.03L9.07,23.03L9.4,23.2L9.74,23.03L9.81,22.7L10.15,22.87L10.48,23.03L10.81,23.12L11.14,23.37L11.48,23.45L11.98,23.45L12.31,23.53L12.64,23.7L12.97,23.95L13.31,24.12L13.47,24.44L13.73,24.77L14.06,24.86L14.39,25.03L14.72,25.11L14.89,25.44L15.22,25.69L15.56,25.86L15.47,26.19L15.63,26.52L15.47,26.86L15.8,26.93L15.97,27.27L16.39,27.02L16.72,27.1L17.05,26.93L17.38,26.77L17.72,26.6L18.05,26.52L18.38,26.6L18.71,26.93L19.05,26.77L19.3,26.44L19.63,26.44L19.97,26.52L20.29,26.52L20.62,26.69L20.71,27.02L21.12,27.1L19.55,29.09L20.21,28.76L20.54,28.6L20.71,28.76L20.71,29.09L21.21,29.59L21.62,27.27L21.78,25.19L21.78,25.03L21.87,24.7L21.87,24.36L21.12,23.37L20.79,23.29L20.79,21.96L20.88,21.63L21.21,21.63L21.54,21.37L21.87,21.63L22.21,21.46L22.12,21.13L21.78,20.78L21.45,20.62L21.12,20.71L21.04,19.62L23.11,19.62L23.54,19.71L23.87,19.45L23.87,19.12L24.28,19.21L24.61,19.04L24.94,18.96L25.28,18.96L25.28,18.62L25.11,18.29L24.87,17.96L24.61,17.63L24.87,17.29L25.11,16.96L25.2,16.63L25.11,16.3L24.87,15.96L24.53,15.3L24.44,14.97L24.44,13.64L24.61,13.3L24.94,12.97L24.87,12.64L24.94,12.31L24.87,11.97L24.53,11.9L24.2,12.06L23.87,12.14L23.37,12.14L23.04,12.06L22.7,11.97L22.37,12.06L22.04,12.23L21.71,12.23L21.45,11.9L21.12,11.64L20.79,11.31L20.45,11.15L20.13,11.06L19.8,10.9L19.47,10.82L19.14,10.73L18.38,10.73L18.05,10.65L17.72,10.73L17.38,10.9L17.05,10.9L16.89,10.57L16.55,10.32L16.46,9.99L16.55,9.66L16.55,9.31L16.46,8.98L16.3,8.65L16.05,8.32L15.97,7.98L15.8,7.65L15.8,7.32L15.47,7.32L15.22,7.65L14.89,7.65L15.13,7.24L15.4,6.91L15.47,6.58L15.4,6.16L15.47,5.82L15.63,5.49L15.97,4.83L16.3,4.5L16.46,4.17L16.8,4.01L17.14,3.83L17.22,3.5" style="fill:none;fill-rule:nonzero;stroke:black;stroke-width:0.28px;"/>
    <path id="polyline14" d="M25.27,18.94L25.27,18.61L25.1,18.28L24.86,17.95L24.6,17.61L24.86,17.28L25.1,16.95L25.19,16.62L25.1,16.28L24.86,15.95L24.52,15.29L24.43,14.95L24.43,13.62L24.6,13.29L24.93,12.96L24.86,12.63L24.93,12.29L24.86,11.96L24.52,11.88L24.19,12.05L23.86,12.13L23.36,12.13L23.03,12.05L22.69,11.96L22.36,12.05L22.03,12.22L21.7,12.22L21.44,11.88L21.11,11.63L20.78,11.3L20.44,11.14L20.12,11.05L19.79,10.89L19.46,10.81L19.12,10.72L18.37,10.72L18.04,10.64L17.71,10.72L17.37,10.89L17.04,10.89L16.87,10.56L16.54,10.31L16.45,9.98L16.54,9.65L16.54,9.3L16.45,8.97L16.29,8.64L16.04,8.31L15.95,7.97L15.79,7.64L15.79,7.31L15.46,7.31L15.21,7.64L14.88,7.64L15.12,7.23L15.4,6.9L15.46,6.57L15.4,6.14L15.46,5.81L15.62,5.48L15.79,5.15L15.95,4.81L16.29,4.49L16.45,4.16L17.13,3.82L17.21,3.48L17.54,3.32L17.87,3.15L18.2,3.15L18.14,3.33L17.81,3.5L17.55,3.83L17.31,4.17L17.55,4.5L17.72,4.83L17.88,5.16L17.88,5.49L17.55,5.82L17.31,6.16L17.14,6.49L17.38,6.82L17.55,7.15L17.72,7.49L18.05,7.65L18.38,7.49L18.71,7.32L18.88,6.99L18.88,6.65L18.8,6.32L18.64,5.99L18.3,5.82L18.3,5.49L18.22,5.16L18.22,4.83L18.3,4.5L18.64,4.42L18.97,4.08L19.3,4.01L19.63,3.92L19.97,3.83L20.29,3.83L20.54,3.5L20.79,3.16L20.45,3L20.13,2.66L20.45,2.33L20.79,2.42L20.88,2.75L21.12,3.09L21.29,3.42L21.62,3.58L21.95,3.5L22.28,3.5L22.62,3.66L22.95,3.83L23.28,4.08L23.54,4.42L23.87,4.75L24.53,4.91L25.86,4.91L26.2,4.75L26.53,4.83L27.19,4.83L27.53,5.08L27.86,5.16L28.19,5.25L28.52,5.32L28.86,5.32L29.19,5.41L29.52,5.41L29.85,5.32L30.19,5.32L30.52,4.99L31.18,4.99L30.85,4.75L30.52,4.67L30.85,4.5L31.52,4.5L31.85,4.58L32.51,4.42L33.18,4.34L33.84,4.34L34.18,4.5L34.51,4.42L34.25,4.75L33.92,4.91L33.59,4.75L33.26,4.67L32.92,4.67L33.09,4.99L33.35,5.32L33.68,5.58L34.01,5.58L34.34,5.75L34.68,5.82L35.01,5.91L35.34,5.82L35.67,5.99L36.01,6.16L36.34,6.24L36.52,6.58L36.58,6.91L36.58,7.24L36.25,7.49L36.17,7.82L36.52,7.82L36.84,7.74L37.17,7.74L37.5,7.65L37.83,7.74L38,8.07L38,8.41L37.67,8.74L37.34,8.9L37,8.98L36.67,9.31L36.67,9.99L37,10.23L37.17,10.57L36.84,10.82L35.84,10.82L35.58,11.15L35.58,11.47L35.51,11.81L35.42,12.14L35.42,12.47L35.75,12.73L36.08,12.97L36.34,13.3L36.52,13.64L36.67,13.97L36.42,14.3L36.01,14.47L35.58,14.72L35.25,14.72L34.92,14.97L34.59,15.13L34.25,15.22L33.92,15.22L33.59,15.39L32.92,15.39L32.68,15.72L32.35,15.96L32.02,15.89L31.68,15.72L31.35,15.63L31.02,15.46L30.69,15.39L30.35,15.22L30.02,15.3L29.69,15.22L29.36,15.22L29.36,15.55L29.69,15.8L30.02,15.96L30.26,16.3L30.35,16.72L30.35,17.05L30.52,17.38L30.43,17.71L30.43,18.05L30.76,18.21L31.43,18.21L31.76,18.29L31.85,18.62L31.52,18.79L31.18,18.88L30.85,18.96L30.52,19.29L30.35,19.62L30.02,19.79L29.69,20.04L29.36,20.28L29.19,20.62L28.93,21.04L28.6,20.78L28.44,21.13L28.1,21.37L27.77,21.37L27.44,21.2L27.11,21.04L26.77,20.95L26.7,20.62L26.36,20.45L26.11,20.12L25.78,19.79L25.61,19.45L25.44,19.12L25.27,18.94" style="fill:none;fill-rule:nonzero;stroke:black;stroke-width:0.28px;"/>
    <path id="polyline16" d="M5.49,21.2L5.75,21.7L5.41,21.87L5.08,21.87L4.66,21.96L4.33,22.12L4,22.46L3.92,22.79L3.75,23.12L3.92,23.45L3.83,23.79L3.59,24.12L3.33,24.44L3.25,24.77L3.25,25.11L3,25.44L2.67,25.77L2.59,26.1L2.75,26.44L2.67,26.77L2.67,27.1L2.75,27.43L2.59,27.77L2.59,28.1L2.92,28.26L3.25,28.43L3.66,28.26L4.08,28.19L4.42,28.1L4.75,28.02L4.83,28.35L4.66,28.68L4.49,29.02L4.16,29.18L3.83,29.43L3.59,29.76L3.25,30.09L3.09,30.42L2.75,30.68L2.42,31.01L2.17,31.34L2.09,31.68L2,32.01L2.09,32.34L2.42,32.51L2.83,32.51L3.16,32.42L3.33,32.09L3.66,31.75L4,31.59L4.33,31.51L4.66,31.75L4.99,31.75L5.25,32.09L5.58,32.18L5.91,32.25L6.08,31.92L6.33,31.59L6.5,31.26L6.67,30.92L6.74,30.51L6.83,30.18L7,29.85L7.08,29.52L7.41,29.76L7.58,29.43L7.58,29.09L7.82,28.76L8.15,28.6L8.57,28.43L8.98,28.26L9.32,28.1L9.74,27.93L10.15,27.69L10.48,27.43L10.81,27.1L11.07,26.77L11.31,26.44L11.4,26.1L11.57,25.77L11.64,25.44L11.73,25.11L11.73,24.77L12.06,24.7L11.81,24.2L11.48,23.95L11.81,23.79L11.96,23.44L11.48,23.45L11.14,23.37L10.81,23.12L10.48,23.03L10.15,22.87L9.81,22.7L9.74,23.03L9.4,23.2L9.07,23.03L8.74,23.03L8.41,22.87L8.07,22.53L7.74,22.29L7.41,22.37L7.08,22.29L6.74,22.2L6.41,22.12L5.49,21.2" style="fill:none;fill-rule:nonzero;stroke:black;stroke-width:0.28px;"/>
    <path id="polyline18" d="M21.2,29.58L20.7,29.08L20.7,28.75L20.53,28.59L20.2,28.75L19.53,29.08L21.11,27.09L20.7,27.01L20.61,26.68L20.28,26.51L19.96,26.51L19.62,26.42L19.29,26.42L19.04,26.76L18.7,26.92L18.37,26.59L18.04,26.51L17.71,26.59L17.37,26.76L17.04,26.92L16.71,27.09L16.38,27.01L15.95,27.26L15.79,26.92L15.46,26.85L15.62,26.51L15.46,26.18L15.54,25.85L15.21,25.68L14.88,25.43L14.71,25.09L14.38,25.02L14.05,24.85L13.72,24.76L13.46,24.43L13.29,24.11L12.96,23.94L12.63,23.69L12.3,23.52L11.96,23.44L11.8,23.78L11.47,23.94L11.8,24.19L12.05,24.68L11.72,24.76L11.72,25.09L11.63,25.43L11.55,25.76L11.39,26.09L11.3,26.42L11.06,26.76L10.8,27.09L10.47,27.42L10.14,27.68L9.73,27.92L9.3,28.09L8.97,28.25L8.56,28.42L8.14,28.59L7.81,28.75L7.56,29.08L7.56,29.42L7.4,29.75L7.07,29.5L6.99,29.84L6.82,30.17L6.73,30.5L6.66,30.91L6.49,31.24L6.32,31.58L6.07,31.91L5.9,32.24L5.24,32.08L4.98,31.74L4.65,31.74L4.32,31.5L3.98,31.58L3.65,31.74L3.32,32.08L3.15,32.41L2.82,32.5L2.41,32.5L2.33,32.59L2.33,32.92L2.5,33.25L2.83,33.25L3,33.58L2.75,34L2.42,34.17L2.5,34.5L2.83,34.67L3.16,34.75L3.66,34.84L4,35L4.33,35.17L4.66,35.5L4.92,35.83L5.08,36.17L5.25,36.5L5.33,36.83L5.67,37.07L6,37.33L6.58,37.74L6.67,38.07L6.74,38.4L6.83,38.74L7.17,39.4L7.41,39.73L7.58,40.07L7.82,40.4L7.99,40.82L8.07,41.15L8.32,41.48L8.48,41.82L8.57,42.15L8.82,42.48L9.15,42.73L9.48,43.06L9.65,43.39L9.74,43.73L9.98,44.07L10.24,44.4L10.57,44.73L10.73,45.06L10.9,45.47L11.14,45.81L11.48,45.81L11.64,46.14L11.48,46.47L11.31,46.8L11.31,47.14L11.57,47.47L11.64,47.8L11.98,48.06L12.31,48.22L12.64,48.39L12.97,48.72L13.31,48.89L13.56,49.22L13.8,49.55L14.14,49.72L14.8,49.88L15.13,50.05L15.47,50.21L15.8,50.37L16.13,50.54L16.46,50.7L16.8,50.7L17.14,50.96L17.47,51.13L17.81,51.2L18.14,51.2L18.8,51.54L19.14,51.7L19.47,51.96L19.8,52.29L19.97,52.62L20.29,52.87L20.62,53.03L20.88,53.36L21.21,53.62L21.54,53.79L21.87,53.7L22.21,53.62L22.54,53.45L22.7,53.12L22.62,52.79L22.87,52.46L22.78,52.12L22.54,51.79L22.45,51.46L22.62,51.13L23.28,50.79L23.61,50.63L23.54,50.29L23.45,49.96L23.11,50.05L22.78,49.8L22.45,49.72L22.12,49.55L21.78,49.39L22.12,49.3L22.45,49.22L22.21,48.89L22.28,48.47L22.62,48.63L22.78,48.89L22.95,48.55L23.11,48.3L23.04,47.97L23.2,46.97L23.61,46.56L23.45,45.56L23.45,44.98L23.87,43.56L22.37,41.23L21.95,41.15L21.62,41.32L21.29,41.48L20.95,41.48L20.62,41.4L20.45,41.06L20.54,40.73L20.54,39.49L20.45,39.16L20.45,38.82L20.13,38.74L19.8,38.99L19.47,39.16L19.14,39.4L18.88,39.73L18.55,39.82L18.22,39.9L17.88,39.9L17.64,39.57L17.31,39.23L16.96,38.99L16.63,38.9L16.3,38.99L15.97,38.99L16.05,38.66L15.97,38.24L15.8,37.9L15.47,37.57L15.22,37.24L15.13,36.91L15.06,36.58L14.72,36.33L14.56,36L14.72,35.67L14.8,35.33L14.89,35L14.97,34.67L15.13,34.34L15.56,34.17L15.89,33.84L15.8,33.51L15.72,33.17L15.72,32.84L15.89,32.51L16.13,32.18L16.3,31.84L16.46,31.51L16.72,31.18L16.96,30.85L17.31,30.68L17.64,30.51L17.97,30.42L18.71,30.42L19.05,30.09L19.38,29.93L19.8,29.76L20.13,29.76L20.45,29.93L20.79,29.76L21.12,29.76L21.2,29.58" style="fill:none;fill-rule:nonzero;stroke:black;stroke-width:0.28px;"/>
    <path id="polyline20" d="M38.08,7.91L38.41,8.15L39.08,8.15L39.41,8.41L39.41,8.74L39.57,9.07L39.92,9.4L40.25,9.74L40.33,10.07L40.33,10.4L40.25,10.73L40.16,11.06L40.16,11.4L40.42,11.06L40.58,10.73L40.92,10.73L41.25,10.9L41.58,11.06L41.82,11.4L42.08,11.73L42.41,11.9L42.49,12.23L42.58,12.56L42.49,12.89L42.49,13.23L42.41,13.56L42.08,13.8L41.58,13.89L41.49,14.22L41.41,14.56L41.25,14.89L41.25,15.22L41.33,15.55L41.41,15.89L41.66,16.22L41.82,16.55L42.16,16.79L42.49,17.13L42.58,17.46L42.74,17.79L42.99,18.12L43.15,18.46L43.41,18.79L42.99,18.88L42.66,18.88L42.32,19.04L41.99,19.39L41.08,19.39L40.75,19.54L40.42,19.71L40.08,19.87L39.75,19.87L39.41,19.79L39,19.54L38.67,19.45L38.33,19.29L38.17,18.96L38.08,18.62L38,18.29L37.83,17.96L37.83,16.63L37.91,16.3L38,15.96L38.08,15.63L38,15.3L37.75,14.97L37.5,14.63L37.5,14.3L37.83,14.06L37.83,13.47L37.5,13.3L37.17,13.3L36.84,13.47L36.52,13.62L36.33,13.29L36.07,12.96L35.74,12.72L35.41,12.46L35.41,12.13L35.5,11.8L35.57,11.46L35.57,11.14L35.83,10.81L36.83,10.81L37.16,10.56L36.99,10.22L36.66,9.98L36.66,9.3L36.99,8.97L37.32,8.89L37.66,8.73L37.99,8.39L37.99,8.06L38.08,7.91" style="fill:none;fill-rule:nonzero;stroke:black;stroke-width:0.28px;"/>
    <path id="polyline22" d="M42.57,12.55L42.48,12.88L42.48,13.21L42.4,13.55L42.07,13.79L41.57,13.88L41.48,14.21L41.4,14.54L41.24,14.88L41.24,15.21L41.31,15.54L41.4,15.87L41.65,16.21L41.81,16.54L42.15,16.78L42.48,17.12L42.57,17.45L42.73,17.78L42.98,18.11L43.14,18.45L43.4,18.78L43.49,18.88L43.82,18.88L44.15,19.12L44.57,19.04L44.91,18.79L44.91,18.46L44.57,18.21L44.65,17.88L44.98,17.96L45.32,18.05L45.65,17.96L45.98,17.79L46.31,17.79L46.48,18.12L46.81,18.12L47.14,17.88L47.23,17.55L47.4,17.22L47.57,16.88L47.64,16.55L47.81,16.22L47.81,15.89L47.48,15.55L47.31,15.22L47.31,14.89L47.23,14.56L47.07,14.22L47.07,13.89L47.14,13.56L47.48,13.39L47.73,13.06L47.9,12.73L48.06,12.39L47.73,12.31L47.4,12.31L47.07,12.23L46.73,12.14L46.4,12.06L46.07,11.9L45.74,12.06L45.4,12.14L45.07,12.14L44.74,12.23L44.41,12.23L44.07,12.06L43.74,12.06L43.41,12.14L43.08,12.06L42.74,12.14L42.66,12.47L42.57,12.55" style="fill:none;fill-rule:nonzero;stroke:black;stroke-width:0.28px;"/>
    <path id="polyline24" d="M46.99,18.39L47.32,18.47L47.74,18.63L48.08,18.47L48.41,18.22L48.74,18.3L49.07,18.22L49.41,18.39L49.74,18.47L50.07,18.22L50.9,17.14L51.07,16.81L51.31,16.47L51.57,16.06L51.81,15.73L52.07,15.4L51.98,15.07L51.9,14.73L51.57,14.73L51.48,15.07L51.4,14.73L51.15,14.4L50.81,14.15L50.48,13.9L50.24,13.57L49.9,13.24L49.57,12.98L49.24,12.98L48.91,12.82L48.74,12.48L48.24,12.65L47.9,12.73L47.73,13.06L47.48,13.39L47.14,13.56L47.07,13.89L47.07,14.22L47.23,14.56L47.31,14.89L47.31,15.22L47.48,15.55L47.81,15.89L47.81,16.22L47.64,16.55L47.57,16.88L47.4,17.22L47.23,17.55L47.14,17.88L46.81,18.12L46.99,18.39" style="fill:none;fill-rule:nonzero;stroke:black;stroke-width:0.28px;"/>
    <path id="polyline26" d="M23.05,52.8L23.55,53.39L23.64,53.8L23.71,54.13L23.88,54.46L24.21,54.79L24.54,55.05L24.88,55.29L24.71,55.62L24.54,56.05L24.63,56.38L24.47,56.71L24.54,57.04L24.63,57.38L24.71,57.71L24.97,58.04L25.21,58.37L25.3,58.71L25.3,59.04L25.38,59.37L25.54,59.7L25.71,60.04L25.8,60.37L25.87,60.7L25.54,60.94L25.8,61.28L26.13,61.37L26.46,61.53L26.79,61.44L27.04,61.03L27.13,60.7L27.46,60.61L27.79,60.37L27.87,60.04L28.2,59.95L28.37,59.61L28.7,59.61L29.03,59.78L29.37,59.95L29.7,60.04L30.03,59.95L30.36,59.87L30.7,59.87L31.03,60.11L31.03,60.45L31.2,60.78L31.53,60.87L31.53,60.53L31.62,60.2L31.78,59.87L31.95,59.54L33.45,59.54L33.78,59.78L33.86,59.61L34.28,57.87L34.28,56.71L35.11,55.21L36.44,55.05L37.68,54.72L39.25,54.72L40.76,55.38L41.17,56.29L41.59,55.79L41.09,55.38L41.17,55.05L41.34,54.72L41.43,54.38L41.5,54.05L41.67,53.72L41.76,53.39L41.92,53.05L42.09,52.72L41.59,52.06L41.26,51.8L40.93,51.47L40.59,51.3L40.51,50.97L40.34,50.64L40.43,50.31L40.59,49.97L40.76,49.64L40.67,49.56L37.68,49.4L37.18,47.65L37.51,47.65L37.68,47.31L37.68,46.98L37.44,46.65L37.6,46.32L37.6,45.98L37.35,45.65L37.01,45.48L36.68,45.41L36.02,45.07L35.68,45.07L35.35,45.15L35.02,45.15L34.69,44.91L34.35,44.58L34.02,44.58L33.69,44.49L33.36,44.32L33.02,44.08L32.78,43.74L32.45,43.74L32.12,43.58L31.78,43.49L31.12,43.49L30.78,43.32L30.53,42.99L30.2,42.75L29.87,42.58L29.53,42.25L29.2,41.99L29.12,41.66L29.2,41.33L29.2,41L29.12,40.66L28.96,40.33L28.79,40L28.96,39.67L29.12,39.33L29.12,39L28.96,38.67L28.62,38.76L28.29,38.76L27.96,38.84L27.63,38.84L27.29,38.92L26.96,39.17L26.71,39.5L26.37,39.76L26.04,39.83L25.71,40L25.46,40.33L25.13,40.5L24.8,40.59L24.54,40.92L24.3,41.25L23.97,41.25L23.64,41.09L23.3,41L22.97,41.09L22.64,41.16L22.37,41.23L23.87,43.56L23.45,44.98L23.45,45.56L23.61,46.56L23.2,46.97L23.04,47.97L23.11,48.3L22.95,48.55L22.78,48.89L22.62,48.63L22.28,48.47L22.21,48.89L22.45,49.22L22.12,49.3L21.78,49.39L22.12,49.55L22.45,49.72L22.78,49.8L23.11,50.05L23.45,49.96L23.54,50.29L23.61,50.63L23.28,50.79L22.62,51.13L22.45,51.46L22.54,51.79L22.78,52.12L22.87,52.46L23.05,52.8" style="fill:none;fill-rule:nonzero;stroke:black;stroke-width:0.28px;"/>
    <path id="polyline28" d="M41.17,56.29L40.76,55.38L39.25,54.72L37.68,54.72L36.44,55.05L35.11,55.21L34.28,56.71L34.28,57.87L33.86,59.61L33.78,59.78L34.02,59.95L34.35,60.2L34.61,60.53L34.78,60.87L35.11,61.11L35.44,61.44L35.77,61.78L36.11,61.94L36.44,62.2L36.77,62.2L37.1,62.36L37.44,62.69L37.76,62.69L38.01,63.03L38.34,63.1L38.68,63.36L39.01,63.69L39.34,63.86L39.67,64.02L40.01,64.19L40.34,64.19L40.67,64.27L41,64.36L41.34,64.6L41.67,64.86L41.67,65.19L41.43,65.52L41.26,65.85L40.93,66.19L40.84,66.52L40.67,66.93L40.43,67.26L40.34,67.59L40.26,67.93L40.26,68.26L40.59,68.18L40.93,68.18L41.26,68.26L41.59,68.42L41.92,68.51L42.26,68.51L42.59,68.59L43.25,68.59L43.59,68.68L43.92,68.42L44.25,68.51L44.58,68.51L44.92,68.26L45.08,67.93L45.33,67.59L45.66,67.35L45.99,67.18L46.25,66.85L46.25,66.52L46.16,66.19L46.25,65.85L46.41,65.52L46.41,63.77L46.58,63.44L46.66,63.1L46.58,62.77L46.25,62.69L45.83,62.69L45.49,62.61L45.16,62.36L45.08,62.03L44.99,61.7L45.08,61.37L44.92,61.03L44.83,60.7L44.92,60.37L44.75,60.04L44.09,59.7L43.75,59.54L43.42,59.54L43.09,59.61L42.42,59.61L42.09,59.78L41.76,59.7L41.34,59.54L41.43,59.2L41.5,58.87L41.5,58.54L41.34,58.21L41.5,57.87L41.5,57.54L41.34,57.21L41.34,56.54L41.17,56.29" style="fill:rgb(213,43,30);fill-rule:nonzero;stroke:black;stroke-width:0.28px;"/>
    <path id="polyline30" d="M22.87,52.46L23.05,52.8L23.55,53.39L23.64,53.8L23.71,54.13L23.88,54.46L24.21,54.79L24.54,55.05L24.88,55.29L24.71,55.62L24.54,56.05L24.63,56.38L24.47,56.71L24.54,57.04L24.63,57.38L24.71,57.71L24.97,58.04L25.21,58.37L25.3,58.71L25.3,59.04L25.38,59.37L25.54,59.7L25.71,60.04L25.8,60.37L25.87,60.7L25.54,60.94L25.8,61.28L26.13,61.37L26.46,61.53L26.79,61.44L27.04,61.03L27.13,61.2L27.13,61.53L27.04,63.1L25.46,64.1L25.21,64.6L25.3,64.93L25.3,65.27L25.04,65.6L25.04,65.93L25.13,66.26L25.3,66.6L25.38,66.93L25.21,67.26L25.21,67.59L25.46,67.93L25.54,68.26L25.21,68.51L25.21,68.85L24.88,69.18L24.63,69.51L24.47,69.84L24.38,70.18L24.21,70.51L24.05,70.84L23.97,71.17L23.88,71.58L23.8,71.91L23.64,72.25L23.47,72.58L23.55,72.91L23.64,73.24L23.8,73.58L23.88,73.91L23.71,74.24L23.55,74.57L23.55,74.91L23.64,75.24L23.38,75.57L23.05,75.66L22.97,75.99L23.21,76.33L23.55,76.66L23.88,76.99L23.64,77.32L23.8,77.66L23.97,77.99L24.13,78.32L24.05,78.65L24.13,78.82L24.3,79.15L24.54,79.48L24.63,79.82L24.63,80.15L24.71,80.48L24.71,80.81L24.63,80.98L24.3,81.15L24.3,81.48L24.13,81.81L24.05,82.14L23.71,82.31L23.64,82.64L23.71,82.97L23.88,83.31L24.05,83.64L23.88,83.97L23.8,84.3L23.55,84.64L23.3,84.97L23.3,85.3L23.38,85.63L23.47,85.97L23.3,86.3L23.3,86.63L23.47,86.96L23.64,87.3L23.8,87.63L23.88,87.96L23.97,88.29L23.64,88.63L23.3,88.87L23.3,89.53L23.21,89.87L23.14,90.2L23.05,90.53L23.05,92.53L23.14,92.86L23.3,93.19L23.47,93.52L23.64,93.86L23.64,94.19L23.55,94.52L23.3,94.78L23.3,95.11L23.38,95.44L23.71,95.69L23.88,96.02L23.88,96.68L23.97,97.02L24.05,97.35L24.05,97.68L24.38,97.85L24.71,97.68L25.04,97.85L25.21,98.18L24.88,98.43L24.47,98.51L24.13,98.51L23.8,98.6L24.13,98.84L24.47,99.01L24.8,99.18L24.88,99.51L24.54,99.84L24.47,100.17L24.47,100.51L24.38,100.93L24.54,100.99L24.54,101.33L24.8,101.66L24.71,101.99L24.54,102.32L24.47,102.66L24.47,102.99L24.3,103.32L24.21,103.65L24.21,104.32L24.47,104.65L24.47,104.98L24.3,105.32L24.05,105.65L23.88,105.98L23.8,106.31L23.71,106.65L23.71,107.31L23.64,107.64L23.88,107.97L24.13,108.31L24.47,108.38L24.8,108.22L25.13,107.97L25.3,108.31L25.3,108.64L25.21,108.97L25.3,109.3L25.46,109.64L25.54,109.97L25.63,110.3L25.96,110.47L26.3,110.47L26.63,110.38L26.96,110.3L28.37,110.3L28.53,110.63L28.29,110.97L27.96,110.97L27.63,111.04L27.29,111.3L27.13,111.63L27.2,111.96L27.2,112.96L27.13,113.29L26.79,113.29L26.46,113.13L26.13,112.96L25.87,112.63L26.21,112.37L26.54,112.46L26.87,111.96L26.96,111.63L26.87,111.3L26.54,111.38L26.46,111.71L26.3,112.04L25.87,112.04L25.63,112.37L25.63,112.8L25.3,112.63L25.21,112.3L25.38,111.96L25.38,111.63L25.54,111.3L25.21,111.13L25.13,111.47L25.21,111.8L24.97,112.13L24.63,112.13L24.71,111.8L24.71,111.47L24.38,111.47L24.3,111.13L24.63,110.88L24.54,110.55L24.13,110.38L23.97,110.05L23.97,109.71L23.71,109.38L23.55,108.97L23.64,108.64L23.3,108.31L23.21,107.97L22.88,107.72L22.8,107.39L22.88,107.06L22.88,106.72L22.64,105.73L22.47,105.32L22.47,104.98L22.14,104.73L22.22,104.4L22.31,104.06L21.97,103.65L21.97,103.32L21.88,102.99L22.22,102.82L22.22,102.49L22.05,102.16L21.72,102.07L21.55,102.4L21.22,102.32L20.89,101.99L20.72,102.32L20.81,102.66L20.48,102.73L20.31,102.4L20.31,102.07L20.55,101.74L20.72,101.4L20.72,100.74L21.05,100.66L21.39,100.66L21.72,100.83L21.72,101.16L21.64,101.49L21.97,101.49L22.31,101.66L22.38,101.33L22.38,100.99L22.22,100.66L22.47,100.33L22.31,100L22.38,99.66L22.47,99.33L22.72,99L23.05,98.83L23.14,98.5L23.14,98.17L22.8,97.91L22.47,97.84L22.38,97.5L22.38,96.75L22.22,96.42L22.31,96.08L22.47,95.75L22.38,95.42L22.55,95.09L22.47,94.75L22.22,94.42L22.55,94.59L22.72,94.26L22.38,94.09L22.38,93.76L22.47,93.42L22.14,93.18L21.81,93.35L21.72,93.68L21.39,93.76L20.98,93.76L20.81,93.42L20.48,93.18L20.48,92.52L20.55,92.18L20.55,91.85L20.48,91.52L20.48,90.76L20.55,90.43L20.72,90.1L20.72,89.77L20.81,89.44L20.72,89.1L20.55,88.77L20.39,88.44L20.31,88.11L20.31,87.11L20.22,86.78L20.06,86.44L20.14,85.94L20.48,85.61L20.64,85.28L20.81,84.95L20.89,84.61L20.89,84.28L20.81,83.95L20.81,83.62L21.05,83.28L21.14,82.95L21.22,82.62L21.39,82.21L21.55,81.88L21.55,81.21L21.64,80.88L21.64,80.22L21.81,79.88L21.97,79.55L21.81,79.22L21.72,78.89L21.81,78.55L22.05,78.22L21.88,77.89L21.81,77.56L21.88,77.22L21.88,76.89L21.81,76.56L21.47,76.23L21.39,75.56L21.31,75.23L21.22,74.9L21.22,74.47L21.31,74.14L21.47,73.81L21.55,73.48L21.31,73.14L21.47,72.81L21.47,72.48L21.31,71.82L21.31,71.48L21.47,70.82L21.47,70.49L21.55,70.15L21.55,69.49L21.72,69.16L21.81,68.82L21.81,68.41L21.97,67.99L22.14,67.66L22.14,67.33L21.88,66.99L21.72,66.58L21.81,66.16L21.97,65.83L22.05,65.5L21.97,65.17L21.97,64.5L22.05,64.17L22.05,63.43L22.14,63.09L22.14,62.76L22.05,62.43L21.81,62.1L21.81,61.76L22.14,61.43L22.14,61.1L22.22,60.77L22.31,60.43L22.31,59.77L22.38,59.44L22.31,59.02L22.22,58.68L21.97,58.35L21.97,56.52L22.05,56.11L21.97,55.69L21.88,55.36L21.64,55.03L21.55,54.69L21.47,54.28L21.55,53.95L21.54,53.79L21.87,53.7L22.21,53.62L22.54,53.45L22.7,53.12L22.62,52.79L22.87,52.46" style="fill:none;fill-rule:nonzero;stroke:black;stroke-width:0.28px;"/>
    <path id="polyline32" d="M20.72,94.01L20.72,95.34L20.55,95.67L20.55,96.34L20.64,96.67L20.98,96.58L21.31,96.58L21.47,96.25L21.47,95.59L21.14,95.34L21.22,95.01L21.47,94.68L21.39,94.34L21.31,94.01L20.98,94.09L20.72,94.01" style="fill:none;fill-rule:nonzero;stroke:black;stroke-width:0.28px;"/>
    <path id="polyline34" d="M29.95,114.13L29.62,114.2L29.29,114.46L29.03,114.13L28.7,114.13L28.37,114.04L28.04,113.87L27.7,114.13L27.29,114.29L26.96,114.2L26.63,114.46L26.96,114.54L27.29,114.37L27.37,114.7L27.7,114.7L28.04,114.96L28.12,114.62L28.46,114.54L28.79,114.54L29.12,114.7L29.45,114.87L29.94,114.62L29.95,114.13" style="fill:none;fill-rule:nonzero;stroke:black;stroke-width:0.28px;"/>
    <path id="polyline36" d="M25.3,112.96L25.04,113.29L25.13,113.63L25.46,113.63L25.8,113.7L26.04,113.37L25.71,113.04L25.3,112.96" style="fill:none;fill-rule:nonzero;stroke:black;stroke-width:0.28px;"/>
    <path id="polyline38" d="M28.87,110.88L28.62,111.21L28.62,111.54L28.2,111.54L27.87,111.38L27.7,111.71L27.7,112.04L27.79,112.37L28.12,112.54L28.46,112.3L28.62,112.63L28.29,112.8L28.2,113.13L28.29,113.46L28.62,113.7L28.96,113.79L29.29,113.79L29.62,113.96L29.95,113.96L29.95,113.54L29.87,113.04L29.79,112.46L29.7,112.13L29.7,110.97L29.37,111.21L29.03,111.13L28.87,110.88" style="fill:none;fill-rule:nonzero;stroke:black;stroke-width:0.28px;"/>
    <path id="polyline40" d="M24.8,112.8L24.54,112.46L24.21,112.3L23.88,112.3L23.55,112.13L23.21,111.88L23.21,112.21L23.47,112.54L23.8,112.63L24.47,112.63L24.8,112.8" style="fill:none;fill-rule:nonzero;stroke:black;stroke-width:0.28px;"/>
    <path id="polyline42" d="M21.97,105.32L21.64,105.48L21.31,105.48L21.39,105.81L21.55,106.15L21.22,106.39L21.31,106.72L21.47,107.06L21.81,106.89L22.05,107.22L22.22,107.55L22.55,107.64L22.55,107.22L22.47,106.89L22.38,106.56L22.22,106.15L22.22,105.81L21.97,105.32" style="fill:none;fill-rule:nonzero;stroke:black;stroke-width:0.28px;"/>
    <path id="polyline44" d="M30.29,114.62L30.45,114.96L30.78,115.2L31.12,115.29L31.45,115.03L31.36,114.7L31.03,114.62L30.29,114.62" style="fill:none;fill-rule:nonzero;stroke:black;stroke-width:0.28px;"/>
    <path id="polyline46" d="M30.12,115.03L29.79,114.99L29.45,114.99L29.12,115.12L28.96,115.46L29.29,115.7L29.62,115.46L29.95,115.46L30.29,115.53L30.45,115.2L30.12,115.03" style="fill:none;fill-rule:nonzero;stroke:black;stroke-width:0.28px;"/>
    <path id="polyline48" d="M46.58,65.66L46.91,65.5L47.24,65.59L47.49,65.92L47.49,66.25L47.65,66.58L47.65,67.25L47.58,67.58L47.58,67.91L47.32,68.25L46.99,68.49L46.66,68.49L46.32,68.66L45.99,68.91L45.66,69.08L45.49,69.41L45.16,69.58L44.83,69.65L44.5,69.82L44.16,70.15L44,70.49L43.75,70.82L43.42,71.15L43.17,71.48L42.83,71.82L42.59,72.15L42.33,72.48L42.09,72.81L41.84,73.14L41.59,73.48L41.43,73.81L41.34,74.14L41.26,74.47L41.17,74.81L41.09,75.14L41.09,75.47L40.93,75.8L40.84,76.14L40.76,76.47L40.76,76.8L40.67,77.13L40.67,77.8L40.59,78.13L40.34,78.46L40.26,78.8L40.17,79.13L40.17,79.46L40.26,79.79L40.34,80.13L40.34,80.46L40.43,80.79L40.76,80.96L41.09,81.12L41.43,81.29L41.76,81.46L42.09,81.62L42.33,81.95L42.26,82.29L42,82.62L42,82.95L42.33,83.28L42.67,83.54L42.83,83.87L42.83,84.2L42.76,84.54L42.42,85.2L42.09,85.53L41.84,85.87L41.5,86.53L41.26,86.86L40.93,86.86L40.59,86.94L40.17,87.2L39.84,87.27L39.51,87.36L39.18,87.53L38.84,87.7L38.51,87.7L38.09,87.86L37.76,87.94L37.44,88.03L37.1,88.03L36.77,88.27L36.44,88.03L36.11,88.19L35.77,87.94L35.35,87.7L35.19,88.03L35.27,88.36L35.61,88.6L35.68,88.94L35.61,89.27L35.27,89.52L35.27,89.86L35.11,90.52L35.35,90.85L35.44,91.19L35.11,91.52L34.69,91.68L34.02,91.68L33.69,91.85L33.36,91.85L33.02,91.52L32.69,91.35L32.36,91.26L32.03,91.19L31.86,91.52L31.78,91.85L31.86,92.18L32.03,92.52L32.03,93.18L32.36,93.42L32.69,93.51L33.02,93.76L33.36,93.51L33.69,93.35L33.78,93.68L33.94,94.34L33.61,94.51L33.28,94.51L33.11,94.18L32.45,94.18L32.12,94.34L32.19,94.68L32.53,94.84L32.86,94.84L32.86,95.18L32.53,95.25L32.19,95.42L31.86,95.67L31.86,96.34L31.95,96.67L32.03,97L32.19,97.34L32.03,97.67L31.69,97.75L31.69,98.41L31.36,98.5L31.03,98.41L30.7,98.41L30.53,98.74L30.2,98.83L29.87,99.08L29.7,99.41L29.62,99.74L29.53,100.07L29.53,100.41L29.62,100.74L29.7,101.07L30.03,101.33L30.36,101.49L30.7,101.82L31.03,101.9L31.36,101.82L31.69,101.66L31.95,101.99L32.03,102.32L32.03,102.66L31.78,102.99L31.78,103.32L31.45,103.65L31.12,103.82L30.78,104.06L30.45,104.4L30.12,104.73L29.95,105.06L29.7,105.39L30.03,105.39L30.12,105.73L29.87,106.06L29.7,106.39L29.7,106.72L29.37,106.81L29.03,106.48L28.87,106.81L29.03,107.14L28.87,107.48L28.7,107.81L28.2,108.64L28.53,108.55L28.79,108.88L28.87,109.22L28.87,109.64L29.2,109.8L29.53,109.97L29.79,110.3L29.62,110.63L29.29,110.63L28.87,110.47L28.53,110.63L28.37,110.3L26.96,110.3L26.63,110.38L26.3,110.47L25.96,110.47L25.63,110.3L25.54,109.97L25.46,109.64L25.3,109.3L25.21,108.97L25.3,108.64L25.3,108.31L25.13,107.97L24.8,108.22L24.47,108.38L24.13,108.31L23.88,107.97L23.64,107.64L23.71,107.31L23.71,106.65L23.8,106.31L23.88,105.98L24.05,105.65L24.3,105.32L24.47,104.98L24.47,104.65L24.21,104.32L24.21,103.65L24.3,103.32L24.47,102.99L24.47,102.66L24.54,102.32L24.71,101.99L24.8,101.66L24.54,101.33L24.54,100.99L24.38,100.93L24.47,100.51L24.47,100.17L24.54,99.84L24.88,99.51L24.8,99.18L24.47,99.01L24.13,98.84L23.8,98.6L24.13,98.51L24.47,98.51L24.88,98.43L25.21,98.18L25.04,97.85L24.71,97.68L24.38,97.85L24.05,97.68L24.05,97.35L23.97,97.02L23.88,96.68L23.88,96.02L23.71,95.69L23.38,95.44L23.3,95.11L23.3,94.78L23.55,94.52L23.64,94.19L23.64,93.86L23.47,93.52L23.3,93.19L23.14,92.86L23.05,92.53L23.05,90.53L23.14,90.2L23.21,89.87L23.3,89.53L23.3,88.87L23.64,88.63L23.97,88.29L23.88,87.96L23.8,87.63L23.64,87.3L23.47,86.96L23.3,86.63L23.3,86.3L23.47,85.97L23.38,85.63L23.3,85.3L23.3,84.97L23.55,84.64L23.8,84.3L23.88,83.97L24.05,83.64L23.88,83.31L23.71,82.97L23.64,82.64L23.71,82.31L24.05,82.14L24.13,81.81L24.3,81.48L24.3,81.15L24.63,80.98L24.71,80.81L24.71,80.48L24.63,80.15L24.63,79.82L24.54,79.48L24.3,79.15L24.13,78.82L24.05,78.65L24.13,78.32L23.97,77.99L23.8,77.66L23.64,77.32L23.88,76.99L23.55,76.66L23.21,76.33L22.97,75.99L23.05,75.66L23.38,75.57L23.64,75.24L23.55,74.91L23.55,74.57L23.71,74.24L23.88,73.91L23.8,73.58L23.64,73.24L23.55,72.91L23.47,72.58L23.64,72.25L23.8,71.91L23.88,71.58L23.97,71.17L24.05,70.84L24.21,70.51L24.38,70.18L24.47,69.84L24.63,69.51L24.88,69.18L25.21,68.85L25.21,68.51L25.54,68.26L25.46,67.93L25.21,67.59L25.21,67.26L25.38,66.93L25.3,66.6L25.13,66.26L25.04,65.93L25.04,65.6L25.3,65.27L25.3,64.93L25.21,64.6L25.46,64.1L27.04,63.1L27.13,61.53L27.13,61.2L27.04,61.03L27.13,60.7L27.46,60.61L27.79,60.37L27.87,60.04L28.2,59.95L28.37,59.61L28.7,59.61L29.03,59.78L29.37,59.95L29.7,60.04L30.03,59.95L30.36,59.87L30.7,59.87L31.03,60.11L31.03,60.45L31.2,60.78L31.53,60.87L31.53,60.53L31.62,60.2L31.78,59.87L31.95,59.54L33.45,59.54L33.78,59.78L34.02,59.95L34.35,60.2L34.61,60.53L34.78,60.87L35.11,61.11L35.44,61.44L35.77,61.78L36.11,61.94L36.44,62.2L36.77,62.2L37.1,62.36L37.44,62.69L37.76,62.69L38.01,63.03L38.34,63.1L38.68,63.36L39.01,63.69L39.34,63.86L39.67,64.02L40.01,64.19L40.34,64.19L40.67,64.27L41,64.36L41.34,64.6L41.67,64.86L41.67,65.19L41.43,65.52L41.26,65.85L40.93,66.19L40.84,66.52L40.67,66.93L40.43,67.26L40.34,67.59L40.26,67.93L40.26,68.26L40.59,68.18L40.93,68.18L41.26,68.26L41.59,68.42L41.92,68.51L42.26,68.51L42.59,68.59L43.25,68.59L43.59,68.68L43.92,68.42L44.25,68.51L44.58,68.51L44.92,68.26L45.08,67.93L45.33,67.59L45.66,67.35L45.99,67.18L46.25,66.85L46.25,66.52L46.16,66.19L46.25,65.85L46.58,65.66" style="fill:none;fill-rule:nonzero;stroke:black;stroke-width:0.28px;"/>
    <path id="polyline50" d="M30.12,114.04L30.45,114.29L30.78,114.46L31.45,114.46L31.78,114.54L32.12,114.7L32.53,114.62L33.19,114.46L33.52,114.37L33.45,114.04L33.11,114.04L32.78,113.96L32.45,113.96L32.19,113.63L31.86,113.54L31.53,113.46L31.2,113.29L31.03,112.96L30.7,112.8L30.45,112.46L30.29,112.13L29.95,112.13L30.03,111.8L30.03,111.47L29.79,111.13L29.7,110.97L29.7,112.13L29.79,112.46L29.87,113.04L29.95,113.54L29.95,113.96L30.12,114.04" style="fill:none;fill-rule:nonzero;stroke:black;stroke-width:0.28px;"/>
    <path id="polyline52" d="M41.59,73.48L41.43,73.81L41.34,74.14L41.26,74.47L41.17,74.81L41.09,75.14L41.09,75.47L40.93,75.8L40.84,76.14L40.76,76.47L40.76,76.8L40.67,77.13L40.67,77.8L40.59,78.13L40.34,78.46L40.43,78.89L40.43,79.22L40.59,79.88L40.93,80.13L41.26,80.38L41.59,80.38L41.92,80.29L42.26,80.38L42.5,80.71L42.67,81.05L43,81.21L43.66,81.21L44,81.05L44.33,81.12L44.66,81.21L44.99,81.29L45.33,81.38L45.66,81.38L45.99,81.21L46.25,80.88L46.58,80.79L46.91,80.55L46.99,80.22L47.24,79.88L47.58,79.63L47.58,79.3L47.41,78.96L47.24,78.63L47.58,77.97L47.91,77.97L47.91,77.63L47.58,77.3L47.32,76.97L47.08,76.64L46.82,76.3L46.49,76.06L46.16,75.8L45.83,75.64L45.49,75.39L45.16,75.14L44.99,74.81L44.75,74.47L44.42,74.56L44.09,74.4L43.83,74.06L43.5,73.73L43.17,73.48L43,73.14L42.67,73.14L42.33,73.31L42,73.4L41.59,73.48" style="fill:none;fill-rule:nonzero;stroke:black;stroke-width:0.28px;"/>
</svg>
